<?xml version="1.0" standalone="no"?>
<!DOCTYPE svg PUBLIC "-//W3C//DTD SVG 20010904//EN"
 "http://www.w3.org/TR/2001/REC-SVG-20010904/DTD/svg10.dtd">
<svg version="1.0" xmlns="http://www.w3.org/2000/svg"
 width="900.000000pt" height="900.000000pt" viewBox="0 0 900.000000 900.000000"
 preserveAspectRatio="xMidYMid meet">
<metadata>
Created by potrace 1.11, written by Peter Selinger 2001-2013
</metadata>
<g transform="translate(0.000000,900.000000) scale(0.100000,-0.100000)"
fill="#000000" stroke="none">
<path d="M4090 8985 c-74 -8 -191 -24 -260 -35 -367 -64 -554 -111 -835 -212
-295 -106 -491 -198 -797 -377 -158 -92 -407 -270 -583 -417 -209 -175 -495
-469 -635 -654 -19 -25 -37 -47 -40 -50 -13 -11 -200 -279 -247 -355 -308
-494 -527 -1067 -618 -1615 -49 -298 -57 -379 -62 -675 -5 -284 8 -529 37
-695 5 -30 19 -116 30 -190 23 -145 31 -182 86 -388 119 -446 346 -943 608
-1330 443 -654 1070 -1198 1769 -1536 477 -231 885 -351 1427 -420 398 -51
778 -46 1190 14 709 105 1377 374 1949 785 46 33 96 69 111 80 161 114 496
426 667 620 460 522 805 1179 977 1859 50 198 110 540 125 723 24 274 9 788
-30 1028 -38 234 -68 382 -110 535 -239 864 -711 1612 -1402 2223 -266 235
-596 456 -927 622 -463 232 -1002 394 -1505 451 -186 21 -750 27 -925 9z m725
-780 c279 -12 687 -104 1014 -228 130 -49 414 -185 516 -246 28 -17 64 -38 80
-47 54 -30 229 -147 310 -208 234 -175 472 -407 673 -656 326 -403 561 -870
696 -1381 41 -154 95 -456 106 -584 13 -159 13 -522 -1 -682 -49 -601 -255
-1192 -594 -1708 -339 -515 -819 -958 -1343 -1238 -231 -123 -466 -225 -632
-272 -25 -8 -79 -23 -120 -35 -133 -39 -172 -48 -340 -79 -220 -42 -352 -52
-680 -54 -302 -2 -410 7 -665 54 -544 101 -1031 308 -1483 632 -68 49 -134 97
-145 107 -12 10 -58 48 -102 85 -202 169 -480 472 -628 685 -323 465 -517 918
-621 1450 -19 96 -40 225 -46 285 -17 160 -14 721 4 865 86 671 347 1300 760
1829 49 64 95 121 101 128 5 6 46 51 90 100 69 76 258 259 335 324 355 302
796 552 1226 697 143 48 238 74 394 108 244 53 334 65 575 74 186 7 233 6 520
-5z"/>
<path d="M2289 7199 c-57 -46 -183 -162 -279 -259 -298 -298 -490 -564 -660
-915 -103 -213 -165 -383 -246 -670 -23 -84 -62 -285 -74 -384 l-11 -94 43
-46 c123 -132 244 -246 338 -319 58 -46 110 -86 115 -91 73 -57 386 -215 515
-260 256 -88 408 -120 725 -153 190 -19 721 -17 1055 5 383 25 832 33 999 18
316 -28 572 -113 751 -249 113 -86 248 -240 303 -348 15 -29 14 -32 -14 -77
-16 -26 -81 -136 -143 -245 -62 -108 -153 -264 -201 -347 -49 -82 -105 -179
-125 -215 -20 -36 -63 -110 -95 -165 -32 -55 -81 -140 -110 -190 -29 -49 -85
-146 -125 -215 -416 -716 -538 -935 -529 -945 8 -7 161 -25 223 -25 27 0 78 5
113 11 l63 11 79 136 c43 76 113 198 156 272 104 179 180 311 225 390 20 36
86 148 145 250 59 102 125 214 145 250 20 36 48 84 63 107 15 24 27 45 27 48
0 3 11 22 24 43 21 34 235 400 260 447 6 11 19 31 27 45 9 14 58 97 109 185
51 88 123 212 160 275 37 63 109 187 160 275 51 88 114 196 140 240 25 44 82
141 125 215 135 232 169 290 265 455 82 142 287 497 522 908 l79 138 -17 51
c-58 175 -186 430 -280 555 -68 91 -241 268 -314 321 -157 114 -371 203 -569
237 -330 55 -733 43 -1277 -40 -953 -146 -1230 -171 -1575 -145 -264 20 -482
76 -671 170 -181 90 -313 190 -479 364 l-56 58 -104 -83z"/>
<path d="M975 4593 c40 -413 134 -785 250 -983 11 -19 27 -47 34 -62 31 -60
146 -201 230 -279 205 -193 508 -322 901 -383 102 -16 469 -47 710 -61 617
-34 940 -72 940 -111 0 -17 -67 -153 -438 -885 -166 -328 -302 -603 -302 -611
0 -11 23 -18 93 -27 79 -10 169 -24 229 -36 9 -1 23 5 31 14 14 16 86 143 150
261 19 36 58 108 87 160 29 52 75 138 103 190 27 52 59 107 69 122 10 14 18
28 18 31 0 5 128 238 370 677 196 354 370 671 418 760 19 36 68 126 108 201
41 75 74 148 74 163 0 24 -8 31 -74 62 -95 43 -240 79 -386 95 -134 14 -483 8
-890 -16 -379 -23 -936 -23 -1110 -1 -366 46 -610 111 -867 232 -76 36 -249
136 -288 166 -5 4 -48 37 -95 73 -47 36 -143 121 -214 188 -71 67 -135 124
-143 125 -12 3 -14 -8 -8 -65z"/>
</g>
</svg>
